<?xml version="1.0" encoding="UTF-8"?>
<!DOCTYPE svg PUBLIC "-//W3C//DTD SVG 1.1//EN" "http://www.w3.org/Graphics/SVG/1.1/DTD/svg11.dtd">
<svg xmlns="http://www.w3.org/2000/svg" version="1.1" width="800px" height="244px" style="shape-rendering:geometricPrecision; text-rendering:geometricPrecision; image-rendering:optimizeQuality; fill-rule:evenodd; clip-rule:evenodd" xmlns:xlink="http://www.w3.org/1999/xlink">
<g><path style="opacity:0.923" fill="#a5a5a5" d="M 373.5,2.5 C 373.703,4.04432 374.37,5.37765 375.5,6.5C 258.334,7.16667 141.334,7.83333 24.5,8.5C 14.3606,10.4699 7.86059,16.4699 5,26.5C 4.33333,89.8333 4.33333,153.167 5,216.5C 7.86059,226.53 14.3606,232.53 24.5,234.5C 191.666,235.333 359,235.833 526.5,236C 527.386,237.615 528.386,239.115 529.5,240.5C 360.166,240.667 190.833,240.5 21.5,240C 10.4734,237.01 3.14012,230.176 -0.5,219.5C -0.5,154.167 -0.5,88.8333 -0.5,23.5C 3.14012,12.8238 10.4734,5.99045 21.5,3C 138.833,2.5 256.166,2.33333 373.5,2.5 Z"/></g>
<g><path style="opacity:0.995" fill="#898989" d="M 373.5,2.5 C 508.167,2.33333 642.834,2.5 777.5,3C 788.5,5.50702 795.833,12.007 799.5,22.5C 799.5,79.1667 799.5,135.833 799.5,192.5C 797.833,192.5 796.167,192.5 794.5,192.5C 794.667,136.832 794.5,81.1657 794,25.5C 791.649,18.4808 787.149,13.3141 780.5,10C 646.21,8.50674 511.876,8.00674 377.5,8.5C 259.833,8.5 142.167,8.5 24.5,8.5C 141.334,7.83333 258.334,7.16667 375.5,6.5C 374.37,5.37765 373.703,4.04432 373.5,2.5 Z"/></g>
<g><path style="opacity:1" fill="#020202" d="M 24.5,8.5 C 142.167,8.5 259.833,8.5 377.5,8.5C 389.339,27.5179 401.673,46.1845 414.5,64.5C 414.177,70.69 414.51,76.69 415.5,82.5C 417.167,82.5 418.833,82.5 420.5,82.5C 421.461,80.7354 421.795,78.7354 421.5,76.5C 425.637,82.155 429.637,87.9883 433.5,94C 553.5,94.5 673.5,94.6667 793.5,94.5C 793.5,135.167 793.5,175.833 793.5,216.5C 791.418,225.75 785.751,231.583 776.5,234C 525.834,234.5 275.167,234.667 24.5,234.5C 14.3606,232.53 7.86059,226.53 5,216.5C 4.33333,153.167 4.33333,89.8333 5,26.5C 7.86059,16.4699 14.3606,10.4699 24.5,8.5 Z"/></g>
<g><path style="opacity:1" fill="#0a0a0a" d="M 377.5,8.5 C 511.876,8.00674 646.21,8.50674 780.5,10C 787.149,13.3141 791.649,18.4808 794,25.5C 794.5,81.1657 794.667,136.832 794.5,192.5C 794.826,200.684 794.492,208.684 793.5,216.5C 793.5,175.833 793.5,135.167 793.5,94.5C 673.5,94.6667 553.5,94.5 433.5,94C 429.637,87.9883 425.637,82.155 421.5,76.5C 421.5,64.8333 421.5,53.1667 421.5,41.5C 419.167,41.5 416.833,41.5 414.5,41.5C 414.5,49.1667 414.5,56.8333 414.5,64.5C 401.673,46.1845 389.339,27.5179 377.5,8.5 Z"/></g>
<g><path style="opacity:1" fill="#f9f9f9" d="M 163.5,40.5 C 164.5,40.5 165.5,40.5 166.5,40.5C 166.5,42.8333 166.5,45.1667 166.5,47.5C 163.38,64.2921 153.38,73.2921 136.5,74.5C 136.584,61.1609 142.251,50.9943 153.5,44C 156.605,42.1319 159.938,40.9652 163.5,40.5 Z"/></g>
<g><path style="opacity:1" fill="#f5f5f5" d="M 516.5,41.5 C 518.5,41.5 520.5,41.5 522.5,41.5C 522.5,55.1667 522.5,68.8333 522.5,82.5C 520.833,82.5 519.167,82.5 517.5,82.5C 517.633,77.7283 516.3,77.5616 513.5,82C 502.742,84.594 497.076,80.2607 496.5,69C 497.594,56.3618 503.927,52.1952 515.5,56.5C 516.494,51.544 516.827,46.544 516.5,41.5 Z"/></g>
<g><path style="opacity:1" fill="#f6f6f6" d="M 660.5,41.5 C 662.5,41.5 664.5,41.5 666.5,41.5C 666.334,46.8437 666.501,52.1771 667,57.5C 670.681,54.6403 674.848,53.8069 679.5,55C 681.378,56.5429 682.878,58.3762 684,60.5C 684.5,67.8258 684.666,75.1591 684.5,82.5C 682.5,82.5 680.5,82.5 678.5,82.5C 678.666,76.1579 678.5,69.8246 678,63.5C 674.829,58.5859 671.163,58.2525 667,62.5C 666.5,69.1583 666.334,75.825 666.5,82.5C 664.5,82.5 662.5,82.5 660.5,82.5C 660.5,68.8333 660.5,55.1667 660.5,41.5 Z"/></g>
<g><path style="opacity:1" fill="#7b7b7b" d="M 163.5,40.5 C 164.568,39.5655 165.901,39.2322 167.5,39.5C 167.806,42.3854 167.473,45.0521 166.5,47.5C 166.5,45.1667 166.5,42.8333 166.5,40.5C 165.5,40.5 164.5,40.5 163.5,40.5 Z"/></g>
<g><path style="opacity:1" fill="#f5f5f5" d="M 258.5,43.5 C 267.162,42.6627 275.495,43.8293 283.5,47C 288.63,50.8835 290.963,56.0502 290.5,62.5C 290.353,72.3081 285.687,78.8081 276.5,82C 270.509,82.4995 264.509,82.6662 258.5,82.5C 258.5,69.5 258.5,56.5 258.5,43.5 Z"/></g>
<g><path style="opacity:1" fill="#020202" d="M 266.5,48.5 C 281.681,48.4859 286.847,55.8192 282,70.5C 278.238,76.5964 272.738,78.9297 265.5,77.5C 265.194,67.7504 265.527,58.0838 266.5,48.5 Z"/></g>
<g><path style="opacity:1" fill="#f2f2f2" d="M 639.5,48.5 C 641.167,48.5 642.833,48.5 644.5,48.5C 644.5,50.5 644.5,52.5 644.5,54.5C 646.833,54.5 649.167,54.5 651.5,54.5C 651.5,56.1667 651.5,57.8333 651.5,59.5C 649.167,59.5 646.833,59.5 644.5,59.5C 644.334,64.8437 644.501,70.1771 645,75.5C 646.754,77.25 648.921,77.9167 651.5,77.5C 651.562,82.984 648.895,84.8174 643.5,83C 642.069,82.5348 640.903,81.7014 640,80.5C 638.575,73.6154 638.075,66.6154 638.5,59.5C 637.167,59.5 635.833,59.5 634.5,59.5C 634.5,57.8333 634.5,56.1667 634.5,54.5C 635.833,54.5 637.167,54.5 638.5,54.5C 638.325,52.3792 638.659,50.3792 639.5,48.5 Z"/></g>
<g><path style="opacity:1" fill="#404040" d="M 266.5,48.5 C 265.527,58.0838 265.194,67.7504 265.5,77.5C 264.834,72.8453 264.501,68.0119 264.5,63C 264.506,57.7843 265.173,52.951 266.5,48.5 Z"/></g>
<g><path style="opacity:1" fill="#efefef" d="M 305.5,54.5 C 319.143,52.3212 325.643,57.9879 325,71.5C 321.344,82.6077 314.177,85.7744 303.5,81C 295.049,71.4465 295.716,62.6132 305.5,54.5 Z"/></g>
<g><path style="opacity:1" fill="#ededed" d="M 379.5,54.5 C 381.5,54.5 383.5,54.5 385.5,54.5C 385.628,57.7741 386.961,57.9408 389.5,55C 396.999,52.6642 401.832,55.1642 404,62.5C 404.5,69.1583 404.666,75.825 404.5,82.5C 402.167,82.5 399.833,82.5 397.5,82.5C 397.666,75.825 397.5,69.1583 397,62.5C 394.921,59.3391 392.087,58.6724 388.5,60.5C 387.667,61.5 386.833,62.5 386,63.5C 385.5,69.8246 385.334,76.1579 385.5,82.5C 383.5,82.5 381.5,82.5 379.5,82.5C 379.5,73.1667 379.5,63.8333 379.5,54.5 Z"/></g>
<g><path style="opacity:1" fill="#f4f4f4" d="M 438.5,54.5 C 454.013,53.5092 459.846,60.5092 456,75.5C 450.059,84.4442 442.726,85.7775 434,79.5C 428.198,69.7447 429.698,61.4113 438.5,54.5 Z"/></g>
<g><path style="opacity:1" fill="#f1f1f1" d="M 469.5,54.5 C 473.514,54.3345 477.514,54.5012 481.5,55C 483.286,55.7845 484.786,56.9512 486,58.5C 487.435,66.3888 487.935,74.3888 487.5,82.5C 484.921,82.9167 482.754,82.25 481,80.5C 474.521,85.199 469.187,84.199 465,77.5C 464.193,70.9664 467.026,66.7997 473.5,65C 476.146,64.5026 478.813,64.3359 481.5,64.5C 481.548,61.7081 480.215,59.8747 477.5,59C 474.208,58.0643 471.208,58.5643 468.5,60.5C 467.229,58.1937 467.562,56.1937 469.5,54.5 Z"/></g>
<g><path style="opacity:1" fill="#efefef" d="M 556.5,54.5 C 573.873,53.3738 579.706,61.0405 574,77.5C 566.3,85.4127 558.633,85.4127 551,77.5C 546.79,68.3125 548.623,60.6459 556.5,54.5 Z"/></g>
<g><path style="opacity:1" fill="#fafafa" d="M 585.5,54.5 C 587.167,54.5 588.833,54.5 590.5,54.5C 590.343,55.8734 590.51,57.2068 591,58.5C 596.739,53.2271 602.405,53.2271 608,58.5C 609.435,66.3888 609.935,74.3888 609.5,82.5C 607.5,82.5 605.5,82.5 603.5,82.5C 603.666,75.825 603.5,69.1583 603,62.5C 598.837,58.2525 595.171,58.5859 592,63.5C 591.5,69.8246 591.334,76.1579 591.5,82.5C 589.5,82.5 587.5,82.5 585.5,82.5C 585.5,73.1667 585.5,63.8333 585.5,54.5 Z"/></g>
<g><path style="opacity:1" fill="#ededed" d="M 701.5,54.5 C 713.621,52.9536 719.287,58.2869 718.5,70.5C 712.132,70.1703 705.798,70.5037 699.5,71.5C 699.861,74.6919 701.528,76.8586 704.5,78C 708.524,78.4973 712.524,78.3307 716.5,77.5C 716.762,78.9778 716.429,80.3112 715.5,81.5C 699.558,85.9483 692.391,79.9483 694,63.5C 695.642,59.6997 698.142,56.6997 701.5,54.5 Z"/></g>
<g><path style="opacity:1" fill="#f0f0f0" d="M 331.5,54.5 C 333.792,54.2436 335.959,54.5769 338,55.5C 339.668,62.1715 341.335,68.8382 343,75.5C 344.942,68.5098 346.776,61.5098 348.5,54.5C 350.604,54.2011 352.604,54.5344 354.5,55.5C 356.488,61.7826 358.321,68.1159 360,74.5C 362.274,68.2963 364.108,61.963 365.5,55.5C 367.396,54.5344 369.396,54.2011 371.5,54.5C 368.635,63.7641 365.968,73.0974 363.5,82.5C 361.396,82.7989 359.396,82.4656 357.5,81.5C 355.345,75.2133 353.345,68.88 351.5,62.5C 349.295,69.1144 347.295,75.7811 345.5,82.5C 343.396,82.7989 341.396,82.4656 339.5,81.5C 336.673,72.5207 334.006,63.5207 331.5,54.5 Z"/></g>
<g><path style="opacity:1" fill="#121212" d="M 703.5,58.5 C 709.029,57.7496 712.029,60.0829 712.5,65.5C 708.167,65.5 703.833,65.5 699.5,65.5C 699.961,62.6967 701.295,60.3634 703.5,58.5 Z"/></g>
<g><path style="opacity:1" fill="#080808" d="M 309.5,58.5 C 315.732,58.5663 318.732,61.7329 318.5,68C 319.213,73.9387 316.713,77.4387 311,78.5C 306.106,77.0662 303.939,73.7329 304.5,68.5C 304.079,64.0087 305.745,60.6754 309.5,58.5 Z"/></g>
<g><path style="opacity:1" fill="#121212" d="M 441.5,58.5 C 450.806,60.1018 453.64,65.4351 450,74.5C 446.992,78.9019 443.325,79.5686 439,76.5C 435.038,69.7324 435.872,63.7324 441.5,58.5 Z"/></g>
<g><path style="opacity:1" fill="#111111" d="M 506.5,59.5 C 510.287,58.8144 513.454,59.8144 516,62.5C 516.667,66.1667 516.667,69.8333 516,73.5C 510.715,80.5146 506.382,79.8479 503,71.5C 501.745,66.7378 502.912,62.7378 506.5,59.5 Z"/></g>
<g><path style="opacity:1" fill="#0f0f0f" d="M 560.5,58.5 C 566.732,58.5663 569.732,61.7329 569.5,68C 570.213,73.9387 567.713,77.4387 562,78.5C 557.097,76.8824 554.931,73.3824 555.5,68C 555.228,63.7064 556.895,60.5397 560.5,58.5 Z"/></g>
<g><path style="opacity:1" fill="#9c9c9c" d="M 421.5,76.5 C 421.795,78.7354 421.461,80.7354 420.5,82.5C 420.5,69.1667 420.5,55.8333 420.5,42.5C 418.833,42.5 417.167,42.5 415.5,42.5C 415.5,55.8333 415.5,69.1667 415.5,82.5C 414.51,76.69 414.177,70.69 414.5,64.5C 414.5,56.8333 414.5,49.1667 414.5,41.5C 416.833,41.5 419.167,41.5 421.5,41.5C 421.5,53.1667 421.5,64.8333 421.5,76.5 Z"/></g>
<g><path style="opacity:1" fill="#fefffe" d="M 420.5,82.5 C 418.833,82.5 417.167,82.5 415.5,82.5C 415.5,69.1667 415.5,55.8333 415.5,42.5C 417.167,42.5 418.833,42.5 420.5,42.5C 420.5,55.8333 420.5,69.1667 420.5,82.5 Z"/></g>
<g><path style="opacity:1" fill="#141414" d="M 475.5,68.5 C 477.5,68.5 479.5,68.5 481.5,68.5C 482.535,76.3053 479.368,79.3053 472,77.5C 470.665,73.3919 471.832,70.3919 475.5,68.5 Z"/></g>
<g><path style="opacity:1" fill="#fdfdfd" d="M 107.5,76.5 C 110.518,76.3354 113.518,76.502 116.5,77C 123.547,79.0717 130.547,81.2383 137.5,83.5C 144.192,81.4362 150.858,79.2695 157.5,77C 172.496,74.7745 184.829,79.4412 194.5,91C 176.828,104.659 173.662,121.159 185,140.5C 188.775,145.113 193.275,148.78 198.5,151.5C 193.371,165.603 185.371,177.769 174.5,188C 169.061,190.371 163.394,191.037 157.5,190C 145.179,184.002 132.845,184.002 120.5,190C 116.5,190.667 112.5,190.667 108.5,190C 94.0154,178.815 84.182,164.315 79,146.5C 74.88,132.232 74.5467,117.899 78,103.5C 83.3065,89.3525 93.1398,80.3525 107.5,76.5 Z"/></g>
<g><path style="opacity:1" fill="#f8f8f8" d="M 493.5,109.5 C 499.565,109.261 505.565,109.761 511.5,111C 514.414,111.133 516.747,112.3 518.5,114.5C 517.547,117.701 516.214,120.701 514.5,123.5C 507.791,120.617 500.791,119.784 493.5,121C 484.588,126.823 484.255,133.157 492.5,140C 498.833,143 505.167,146 511.5,149C 522.215,157.66 524.381,168.16 518,180.5C 514.245,185.295 509.412,188.462 503.5,190C 496.167,190.667 488.833,190.667 481.5,190C 478.221,189.027 475.221,187.527 472.5,185.5C 473.367,182.016 474.534,178.683 476,175.5C 485.578,181.452 495.411,181.952 505.5,177C 509.287,171.624 509.453,166.124 506,160.5C 498.119,156.475 490.286,152.309 482.5,148C 474.1,140.226 472.266,131.059 477,120.5C 481.356,114.92 486.856,111.253 493.5,109.5 Z"/></g>
<g><path style="opacity:1" fill="#f9f9f9" d="M 276.5,110.5 C 281.875,110.172 287.208,110.505 292.5,111.5C 301.241,137.39 309.575,163.39 317.5,189.5C 312.901,189.8 308.401,189.467 304,188.5C 301.725,181.178 299.559,173.845 297.5,166.5C 288.827,166.334 280.16,166.5 271.5,167C 268.626,174.327 266.293,181.827 264.5,189.5C 260.167,189.5 255.833,189.5 251.5,189.5C 259.637,163.09 267.97,136.757 276.5,110.5 Z"/></g>
<g><path style="opacity:1" fill="#fbfbfb" d="M 529.5,142.5 C 529.5,139.5 529.5,136.5 529.5,133.5C 532.385,133.806 535.052,133.473 537.5,132.5C 537.5,128.833 537.5,125.167 537.5,121.5C 541.319,121.117 544.986,120.117 548.5,118.5C 549.493,123.12 549.827,127.786 549.5,132.5C 554.167,132.5 558.833,132.5 563.5,132.5C 563.5,135.833 563.5,139.167 563.5,142.5C 558.833,142.5 554.167,142.5 549.5,142.5C 549.067,153.91 549.567,165.244 551,176.5C 551.465,177.931 552.299,179.097 553.5,180C 556.482,180.498 559.482,180.665 562.5,180.5C 563.011,184.03 562.344,187.196 560.5,190C 549.483,193.561 541.983,190.061 538,179.5C 537.5,167.171 537.333,154.838 537.5,142.5C 534.833,142.5 532.167,142.5 529.5,142.5 Z"/></g>
<g><path style="opacity:1" fill="#0b0b0b" d="M 294.5,156.5 C 287.416,157.126 280.75,156.459 274.5,154.5C 277.82,143.553 280.987,132.553 284,121.5C 287.405,133.214 290.905,144.881 294.5,156.5 Z"/></g>
<g><path style="opacity:1" fill="#f8f8f8" d="M 353.5,131.5 C 368.196,130.027 377.696,136.361 382,150.5C 382.667,157.167 382.667,163.833 382,170.5C 377.178,186.833 366.345,193.333 349.5,190C 346.734,188.533 344.234,186.7 342,184.5C 341.5,193.827 341.334,203.161 341.5,212.5C 337.167,212.5 332.833,212.5 328.5,212.5C 328.5,185.833 328.5,159.167 328.5,132.5C 332.167,132.5 335.833,132.5 339.5,132.5C 339.183,135.572 339.516,138.572 340.5,141.5C 343.735,136.581 348.069,133.248 353.5,131.5 Z"/></g>
<g><path style="opacity:1" fill="#868686" d="M 405.5,140.5 C 404.532,138.393 404.198,136.059 404.5,133.5C 401.167,133.5 397.833,133.5 394.5,133.5C 394.5,159.833 394.5,186.167 394.5,212.5C 393.502,186.005 393.169,159.339 393.5,132.5C 397.5,132.5 401.5,132.5 405.5,132.5C 405.5,135.167 405.5,137.833 405.5,140.5 Z"/></g>
<g><path style="opacity:1" fill="#fafafa" d="M 408.5,185.5 C 408.217,184.711 407.717,184.044 407,183.5C 406.5,193.161 406.334,202.828 406.5,212.5C 402.5,212.5 398.5,212.5 394.5,212.5C 394.5,186.167 394.5,159.833 394.5,133.5C 397.833,133.5 401.167,133.5 404.5,133.5C 404.198,136.059 404.532,138.393 405.5,140.5C 408.07,137.865 411.403,135.365 415.5,133C 432.563,129.115 443.396,135.615 448,152.5C 450.246,164.748 447.412,175.581 439.5,185C 432.284,190.142 424.284,191.808 415.5,190C 412.798,188.988 410.465,187.488 408.5,185.5 Z"/></g>
<g><path style="opacity:1" fill="#f7f7f7" d="M 592.5,131.5 C 617.065,130.935 628.231,142.935 626,167.5C 620.62,186.615 608.12,194.115 588.5,190C 574.296,182.424 568.462,170.59 571,154.5C 573.945,142.726 581.112,135.059 592.5,131.5 Z"/></g>
<g><path style="opacity:1" fill="#aaaaaa" d="M 637.5,133.5 C 640.962,132.518 644.629,132.185 648.5,132.5C 648.5,135.167 648.5,137.833 648.5,140.5C 647.532,138.393 647.198,136.059 647.5,133.5C 644.167,133.5 640.833,133.5 637.5,133.5 Z"/></g>
<g><path style="opacity:1" fill="#f8f8f8" d="M 637.5,133.5 C 640.833,133.5 644.167,133.5 647.5,133.5C 647.198,136.059 647.532,138.393 648.5,140.5C 648.351,141.552 648.517,142.552 649,143.5C 652.277,135.108 658.443,131.108 667.5,131.5C 667.5,135.5 667.5,139.5 667.5,143.5C 659.726,142.468 654.226,145.468 651,152.5C 650.5,164.829 650.333,177.162 650.5,189.5C 646.167,189.5 641.833,189.5 637.5,189.5C 637.5,170.833 637.5,152.167 637.5,133.5 Z"/></g>
<g><path style="opacity:1" fill="#f8f8f8" d="M 693.5,131.5 C 715.938,130.945 725.938,141.945 723.5,164.5C 710.816,164.168 698.149,164.501 685.5,165.5C 686.943,175.897 692.943,181.23 703.5,181.5C 708.99,181.141 714.324,180.141 719.5,178.5C 722.299,185.514 719.966,189.348 712.5,190C 684.088,194.217 671.254,182.05 674,153.5C 677.076,142.939 683.576,135.606 693.5,131.5 Z"/></g>
<g><path style="opacity:1" fill="#9c9c9c" d="M 537.5,132.5 C 535.052,133.473 532.385,133.806 529.5,133.5C 529.5,136.5 529.5,139.5 529.5,142.5C 528.521,139.375 528.187,136.042 528.5,132.5C 531.5,132.5 534.5,132.5 537.5,132.5 Z"/></g>
<g><path style="opacity:1" fill="#0f0f0f" d="M 694.5,140.5 C 706.2,138.873 711.866,143.873 711.5,155.5C 702.833,155.5 694.167,155.5 685.5,155.5C 686.464,149.219 689.464,144.219 694.5,140.5 Z"/></g>
<g><path style="opacity:1" fill="#090909" d="M 592.5,141.5 C 603.765,139.589 610.598,144.256 613,155.5C 614.142,163.575 612.308,170.909 607.5,177.5C 597.141,184.594 589.641,182.261 585,170.5C 581.127,158.987 583.627,149.32 592.5,141.5 Z"/></g>
<g><path style="opacity:1" fill="#040404" d="M 352.5,141.5 C 360.593,141.296 366.093,144.962 369,152.5C 369.829,159.234 369.496,165.901 368,172.5C 363.133,180.505 356.3,182.672 347.5,179C 344.533,176.9 342.7,174.066 342,170.5C 341.116,163.418 341.449,156.418 343,149.5C 345.362,145.755 348.528,143.089 352.5,141.5 Z"/></g>
<g><path style="opacity:1" fill="#060606" d="M 417.5,141.5 C 427.329,141.162 433.163,145.829 435,155.5C 436.525,163.9 434.691,171.4 429.5,178C 419.145,183.393 411.645,180.893 407,170.5C 406.123,163.751 406.456,157.084 408,150.5C 410.406,146.592 413.572,143.592 417.5,141.5 Z"/></g>
<g><path style="opacity:1" fill="#a3a3a3" d="M 274.5,154.5 C 280.75,156.459 287.416,157.126 294.5,156.5C 287.687,157.491 280.687,157.825 273.5,157.5C 273.263,156.209 273.596,155.209 274.5,154.5 Z"/></g>
<g><path style="opacity:1" fill="#454545" d="M 408.5,185.5 C 407.833,194.5 407.167,203.5 406.5,212.5C 406.334,202.828 406.5,193.161 407,183.5C 407.717,184.044 408.217,184.711 408.5,185.5 Z"/></g>
<g><path style="opacity:0.914" fill="#8f8f8f" d="M 794.5,192.5 C 796.167,192.5 797.833,192.5 799.5,192.5C 799.5,201.833 799.5,211.167 799.5,220.5C 795.833,230.993 788.5,237.493 777.5,240C 694.834,240.5 612.167,240.667 529.5,240.5C 528.386,239.115 527.386,237.615 526.5,236C 359,235.833 191.666,235.333 24.5,234.5C 275.167,234.667 525.834,234.5 776.5,234C 785.751,231.583 791.418,225.75 793.5,216.5C 794.492,208.684 794.826,200.684 794.5,192.5 Z"/></g>
</svg>
