<?xml version="1.0" encoding="UTF-8"?>
<!DOCTYPE svg PUBLIC "-//W3C//DTD SVG 1.1//EN" "http://www.w3.org/Graphics/SVG/1.1/DTD/svg11.dtd">
<svg xmlns="http://www.w3.org/2000/svg" version="1.1" width="800px" height="265px" style="shape-rendering:geometricPrecision; text-rendering:geometricPrecision; image-rendering:optimizeQuality; fill-rule:evenodd; clip-rule:evenodd" xmlns:xlink="http://www.w3.org/1999/xlink">
<g><path style="opacity:1" fill="#9b9b9b" d="M 799.5,37.5 C 799.5,102.167 799.5,166.833 799.5,231.5C 795.801,243.361 787.801,250.528 775.5,253C 524.833,253.667 274.167,253.667 23.5,253C 11.199,250.528 3.19897,243.361 -0.5,231.5C -0.5,166.833 -0.5,102.167 -0.5,37.5C 0.983589,33.8677 2.98359,30.5344 5.5,27.5C 7.83333,25.8333 9.83333,23.8333 11.5,21.5C 14.8237,18.4364 18.8237,16.6031 23.5,16C 274.167,15.3333 524.833,15.3333 775.5,16C 787.801,18.4723 795.801,25.639 799.5,37.5 Z"/></g>
<g><path style="opacity:1" fill="#010101" d="M 23.5,20.5 C 274.875,20.0036 526.209,20.5036 777.5,22C 785.641,24.8074 791.141,30.3074 794,38.5C 794.986,103.211 794.652,167.878 793,232.5C 789.44,241.364 782.94,246.53 773.5,248C 523.5,248.667 273.5,248.667 23.5,248C 13.5574,245.058 7.39077,238.558 5,228.5C 4.33333,165.167 4.33333,101.833 5,38.5C 8.44141,29.5567 14.6081,23.5567 23.5,20.5 Z"/></g>
<g><path style="opacity:0.839" fill="#3c3c3c" d="M 11.5,21.5 C 9.83333,23.8333 7.83333,25.8333 5.5,27.5C 6.5,24.5 8.5,22.5 11.5,21.5 Z"/></g>
<g><path style="opacity:1" fill="#f3f3f3" d="M 257.5,56.5 C 265.094,55.1975 271.427,57.3641 276.5,63C 275.315,64.353 273.981,65.5197 272.5,66.5C 265.052,60.6792 258.219,61.3459 252,68.5C 248.049,83.8794 253.882,90.3794 269.5,88C 272.797,86.5367 274.797,84.0367 275.5,80.5C 271.217,79.5078 266.884,79.1744 262.5,79.5C 262.5,77.5 262.5,75.5 262.5,73.5C 268.5,73.5 274.5,73.5 280.5,73.5C 281.742,86.4226 275.909,93.4226 263,94.5C 248.418,91.9009 242.418,83.2342 245,68.5C 247.769,62.8947 251.936,58.8947 257.5,56.5 Z"/></g>
<g><path style="opacity:1" fill="#9c9c9c" d="M 337.5,62.5 C 337.5,60.8333 337.5,59.1667 337.5,57.5C 329.167,57.5 320.833,57.5 312.5,57.5C 312.5,58.8333 312.5,60.1667 312.5,61.5C 315.713,61.19 318.713,61.5233 321.5,62.5C 318.167,62.5 314.833,62.5 311.5,62.5C 311.5,60.5 311.5,58.5 311.5,56.5C 320.5,56.5 329.5,56.5 338.5,56.5C 338.795,58.7354 338.461,60.7354 337.5,62.5 Z"/></g>
<g><path style="opacity:1" fill="#a1a1a1" d="M 389.5,57.5 C 381.167,57.5 372.833,57.5 364.5,57.5C 364.5,58.8333 364.5,60.1667 364.5,61.5C 367.713,61.19 370.713,61.5233 373.5,62.5C 370.167,62.5 366.833,62.5 363.5,62.5C 363.5,60.5 363.5,58.5 363.5,56.5C 372.349,56.1736 381.016,56.507 389.5,57.5 Z"/></g>
<g><path style="opacity:1" fill="#f3f3f3" d="M 416.5,56.5 C 436.006,55.4991 443.839,64.4991 440,83.5C 432.696,94.3677 423.196,96.8677 411.5,91C 401.816,81.5458 401.149,71.5458 409.5,61C 411.898,59.4758 414.231,57.9758 416.5,56.5 Z"/></g>
<g><path style="opacity:1" fill="#f9f9f9" d="M 286.5,57.5 C 293.5,57.5 300.5,57.5 307.5,57.5C 307.5,58.8333 307.5,60.1667 307.5,61.5C 302.305,61.1795 297.305,61.5128 292.5,62.5C 292.5,65.8333 292.5,69.1667 292.5,72.5C 297.5,72.5 302.5,72.5 307.5,72.5C 307.5,74.1667 307.5,75.8333 307.5,77.5C 302.5,77.5 297.5,77.5 292.5,77.5C 292.5,80.8333 292.5,84.1667 292.5,87.5C 297.833,87.5 303.167,87.5 308.5,87.5C 308.5,89.5 308.5,91.5 308.5,93.5C 301.167,93.5 293.833,93.5 286.5,93.5C 286.5,81.5 286.5,69.5 286.5,57.5 Z"/></g>
<g><path style="opacity:1" fill="#f3f3f3" d="M 337.5,62.5 C 334.167,62.5 330.833,62.5 327.5,62.5C 327.5,72.8333 327.5,83.1667 327.5,93.5C 325.5,93.5 323.5,93.5 321.5,93.5C 321.5,83.1667 321.5,72.8333 321.5,62.5C 318.713,61.5233 315.713,61.19 312.5,61.5C 312.5,60.1667 312.5,58.8333 312.5,57.5C 320.833,57.5 329.167,57.5 337.5,57.5C 337.5,59.1667 337.5,60.8333 337.5,62.5 Z"/></g>
<g><path style="opacity:1" fill="#a1a1a1" d="M 359.5,57.5 C 357.833,57.5 356.167,57.5 354.5,57.5C 354.5,69.5 354.5,81.5 354.5,93.5C 353.505,81.3446 353.171,69.0113 353.5,56.5C 355.735,56.2053 357.735,56.5386 359.5,57.5 Z"/></g>
<g><path style="opacity:1" fill="#fdfdfd" d="M 359.5,57.5 C 359.5,69.5 359.5,81.5 359.5,93.5C 357.833,93.5 356.167,93.5 354.5,93.5C 354.5,81.5 354.5,69.5 354.5,57.5C 356.167,57.5 357.833,57.5 359.5,57.5 Z"/></g>
<g><path style="opacity:1" fill="#ececec" d="M 389.5,57.5 C 389.5,59.1667 389.5,60.8333 389.5,62.5C 386.167,62.5 382.833,62.5 379.5,62.5C 379.5,72.8333 379.5,83.1667 379.5,93.5C 377.5,93.5 375.5,93.5 373.5,93.5C 373.5,83.1667 373.5,72.8333 373.5,62.5C 370.713,61.5233 367.713,61.19 364.5,61.5C 364.5,60.1667 364.5,58.8333 364.5,57.5C 372.833,57.5 381.167,57.5 389.5,57.5 Z"/></g>
<g><path style="opacity:1" fill="#969696" d="M 453.5,57.5 C 451.5,57.5 449.5,57.5 447.5,57.5C 447.5,69.5 447.5,81.5 447.5,93.5C 446.505,81.3446 446.171,69.0113 446.5,56.5C 449.059,56.1984 451.393,56.5318 453.5,57.5 Z"/></g>
<g><path style="opacity:1" fill="#f6f6f6" d="M 447.5,93.5 C 447.5,81.5 447.5,69.5 447.5,57.5C 449.5,57.5 451.5,57.5 453.5,57.5C 458.656,65.8053 463.822,74.1387 469,82.5C 469.5,73.8397 469.666,65.1731 469.5,56.5C 471.5,56.5 473.5,56.5 475.5,56.5C 475.5,68.8333 475.5,81.1667 475.5,93.5C 472.635,93.9452 470.135,93.2785 468,91.5C 463.396,83.2341 458.396,75.2341 453,67.5C 452.5,76.1603 452.334,84.8269 452.5,93.5C 450.833,93.5 449.167,93.5 447.5,93.5 Z"/></g>
<g><path style="opacity:1" fill="#b5b5b5" d="M 286.5,57.5 C 293.648,56.5084 300.981,56.175 308.5,56.5C 308.5,58.5 308.5,60.5 308.5,62.5C 303.167,62.5 297.833,62.5 292.5,62.5C 297.305,61.5128 302.305,61.1795 307.5,61.5C 307.5,60.1667 307.5,58.8333 307.5,57.5C 300.5,57.5 293.5,57.5 286.5,57.5 Z"/></g>
<g><path style="opacity:1" fill="#01c4fd" d="M 61.5,60.5 C 66.5,66.1667 71.8333,71.5 77.5,76.5C 96.5,95.8333 115.5,115.167 134.5,134.5C 132.167,137.5 129.5,140.167 126.5,142.5C 104.884,119.217 82.5509,96.5502 59.5,74.5C 59.5,70.8333 59.5,67.1667 59.5,63.5C 59.427,61.9731 60.0937,60.9731 61.5,60.5 Z"/></g>
<g><path style="opacity:1" fill="#060606" d="M 418.5,61.5 C 433.615,62.0638 438.448,69.3972 433,83.5C 427.529,89.0386 421.362,89.8719 414.5,86C 406.966,76.4476 408.3,68.281 418.5,61.5 Z"/></g>
<g><path style="opacity:1" fill="#11db74" d="M 87.5,68.5 C 83.8971,70.7631 80.5638,73.4297 77.5,76.5C 71.8333,71.5 66.5,66.1667 61.5,60.5C 64.1769,58.568 67.1769,58.068 70.5,59C 76.5521,61.6874 82.2188,64.8541 87.5,68.5 Z"/></g>
<g><path style="opacity:1" fill="#00cafe" d="M 59.5,74.5 C 82.5509,96.5502 104.884,119.217 126.5,142.5C 124.167,145.5 121.5,148.167 118.5,150.5C 99.2017,130.701 79.7017,111.035 60,91.5C 59.5006,85.8431 59.3339,80.1764 59.5,74.5 Z"/></g>
<g><path style="opacity:1" fill="#03ed76" d="M 87.5,68.5 C 112.358,81.757 136.692,95.757 160.5,110.5C 151.554,117.778 143.221,125.778 135.5,134.5C 135.167,134.5 134.833,134.5 134.5,134.5C 115.5,115.167 96.5,95.8333 77.5,76.5C 80.5638,73.4297 83.8971,70.7631 87.5,68.5 Z"/></g>
<g><path style="opacity:1" fill="#00ccf7" d="M 59.5,63.5 C 59.5,67.1667 59.5,70.8333 59.5,74.5C 59.3339,80.1764 59.5006,85.8431 60,91.5C 79.7017,111.035 99.2017,130.701 118.5,150.5C 115.5,154.167 112.167,157.5 108.5,160.5C 92.9209,143.419 76.7543,126.752 60,110.5C 59.5003,117.826 59.3337,125.159 59.5,132.5C 59.5,156.167 59.5,179.833 59.5,203.5C 58.1667,156.833 58.1667,110.167 59.5,63.5 Z"/></g>
<g><path style="opacity:1" fill="#00d7fe" d="M 108.5,160.5 C 108.5,160.833 108.5,161.167 108.5,161.5C 104.833,164.833 101.167,168.167 97.5,171.5C 85.1688,158.169 72.5021,145.169 59.5,132.5C 59.3337,125.159 59.5003,117.826 60,110.5C 76.7543,126.752 92.9209,143.419 108.5,160.5 Z"/></g>
<g><path style="opacity:1" fill="#fcc401" d="M 160.5,110.5 C 164.535,112.848 168.535,115.182 172.5,117.5C 170.522,128.451 169.856,139.784 170.5,151.5C 171.833,151.5 173.167,151.5 174.5,151.5C 169.984,154.927 164.984,157.593 159.5,159.5C 151.5,151.167 143.5,142.833 135.5,134.5C 143.221,125.778 151.554,117.778 160.5,110.5 Z"/></g>
<g><path style="opacity:1" fill="#f8f8f8" d="M 282.5,163.5 C 282.5,160.167 282.5,156.833 282.5,153.5C 294.5,153.5 306.5,153.5 318.5,153.5C 321.147,174.721 312.147,188.555 291.5,195C 267.936,197.409 252.103,187.576 244,165.5C 240.991,143.191 249.825,127.691 270.5,119C 285.135,115.243 298.135,118.243 309.5,128C 306.984,130.683 304.317,133.183 301.5,135.5C 292.517,128.533 282.517,126.699 271.5,130C 254.222,140.176 250.056,154.342 259,172.5C 267.526,184.007 278.693,187.507 292.5,183C 301.488,179.518 306.488,173.018 307.5,163.5C 299.167,163.5 290.833,163.5 282.5,163.5 Z"/></g>
<g><path style="opacity:1" fill="#ababab" d="M 499.5,193.5 C 499.5,169.167 499.5,144.833 499.5,120.5C 496.167,120.5 492.833,120.5 489.5,120.5C 489.5,144.833 489.5,169.167 489.5,193.5C 488.502,169.006 488.169,144.339 488.5,119.5C 492.5,119.5 496.5,119.5 500.5,119.5C 500.831,144.339 500.498,169.006 499.5,193.5 Z"/></g>
<g><path style="opacity:1" fill="#fefffe" d="M 499.5,193.5 C 496.167,193.5 492.833,193.5 489.5,193.5C 489.5,169.167 489.5,144.833 489.5,120.5C 492.833,120.5 496.167,120.5 499.5,120.5C 499.5,144.833 499.5,169.167 499.5,193.5 Z"/></g>
<g><path style="opacity:1" fill="#fafafa" d="M 576.5,119.5 C 587.172,119.333 597.839,119.5 608.5,120C 622.95,124.734 628.783,134.568 626,149.5C 623.313,158.186 617.479,163.353 608.5,165C 601.508,165.5 594.508,165.666 587.5,165.5C 587.5,174.833 587.5,184.167 587.5,193.5C 583.833,193.5 580.167,193.5 576.5,193.5C 576.5,168.833 576.5,144.167 576.5,119.5 Z"/></g>
<g><path style="opacity:1" fill="#ababab" d="M 643.5,193.5 C 643.5,169.167 643.5,144.833 643.5,120.5C 640.167,120.5 636.833,120.5 633.5,120.5C 633.5,144.833 633.5,169.167 633.5,193.5C 632.502,169.006 632.169,144.339 632.5,119.5C 636.5,119.5 640.5,119.5 644.5,119.5C 644.831,144.339 644.498,169.006 643.5,193.5 Z"/></g>
<g><path style="opacity:1" fill="#fefffe" d="M 643.5,193.5 C 640.167,193.5 636.833,193.5 633.5,193.5C 633.5,169.167 633.5,144.833 633.5,120.5C 636.833,120.5 640.167,120.5 643.5,120.5C 643.5,144.833 643.5,169.167 643.5,193.5 Z"/></g>
<g><path style="opacity:1" fill="#fad101" d="M 172.5,117.5 C 178.806,120.988 185.14,124.488 191.5,128C 197.107,133.995 196.44,139.329 189.5,144C 184.447,146.527 179.447,149.027 174.5,151.5C 173.167,151.5 171.833,151.5 170.5,151.5C 169.856,139.784 170.522,128.451 172.5,117.5 Z"/></g>
<g><path style="opacity:1" fill="#070707" d="M 587.5,129.5 C 594.589,129.116 601.589,129.616 608.5,131C 619.167,138.667 619.167,146.333 608.5,154C 601.589,155.384 594.589,155.884 587.5,155.5C 587.5,146.833 587.5,138.167 587.5,129.5 Z"/></g>
<g><path style="opacity:1" fill="#00defe" d="M 59.5,132.5 C 72.5021,145.169 85.1688,158.169 97.5,171.5C 96.8333,172.5 96.1667,173.5 95.5,174.5C 84.1667,185.167 73.1667,196.167 62.5,207.5C 62.1667,207.5 61.8333,207.5 61.5,207.5C 60.3263,206.486 59.6596,205.153 59.5,203.5C 59.5,179.833 59.5,156.167 59.5,132.5 Z"/></g>
<g><path style="opacity:1" fill="#f8f8f8" d="M 340.5,145.5 C 359.915,142.93 370.915,151.264 373.5,170.5C 370.695,190.469 359.361,198.636 339.5,195C 322.476,185.926 318.309,172.759 327,155.5C 330.802,151.037 335.302,147.703 340.5,145.5 Z"/></g>
<g><path style="opacity:1" fill="#f7f7f7" d="M 395.5,145.5 C 414.753,142.952 425.753,151.119 428.5,170C 427.795,186.539 419.128,195.372 402.5,196.5C 384.338,193.503 376.171,182.836 378,164.5C 380.955,155.383 386.789,149.05 395.5,145.5 Z"/></g>
<g><path style="opacity:1" fill="#f8f8f8" d="M 452.5,144.5 C 459.767,143.222 465.934,145.222 471,150.5C 471.49,149.207 471.657,147.873 471.5,146.5C 474.833,146.5 478.167,146.5 481.5,146.5C 481.667,164.503 481.5,182.503 481,200.5C 476.199,213.825 466.699,219.325 452.5,217C 444.719,214.884 439.052,210.218 435.5,203C 438.469,201.516 441.469,200.016 444.5,198.5C 451.424,209.274 459.591,210.274 469,201.5C 471.33,197.693 471.83,193.693 470.5,189.5C 455.18,198.672 443.347,195.339 435,179.5C 430.76,162.645 436.594,150.979 452.5,144.5 Z"/></g>
<g><path style="opacity:1" fill="#f6f6f6" d="M 522.5,145.5 C 537.462,143.312 547.462,149.312 552.5,163.5C 541.392,168.584 530.392,173.751 519.5,179C 520.821,181.654 522.821,183.654 525.5,185C 529.167,185.667 532.833,185.667 536.5,185C 539.011,183.152 541.511,181.319 544,179.5C 546.323,181.152 548.656,182.819 551,184.5C 550.454,187.093 548.954,189.26 546.5,191C 530.086,200.522 517.253,197.022 508,180.5C 503.021,164.573 507.854,152.906 522.5,145.5 Z"/></g>
<g><path style="opacity:1" fill="#f7f7f7" d="M 665.5,144.5 C 680.259,142.782 690.092,148.782 695,162.5C 695.5,172.828 695.666,183.161 695.5,193.5C 691.833,193.5 688.167,193.5 684.5,193.5C 684.662,191.473 684.495,189.473 684,187.5C 678.329,194.141 671.163,196.307 662.5,194C 653.576,189.985 650.076,183.152 652,173.5C 656.406,165.541 663.24,161.541 672.5,161.5C 676.301,161.486 679.801,162.486 683,164.5C 682.79,159.275 679.957,156.109 674.5,155C 672.167,154.333 669.833,154.333 667.5,155C 665.323,156.515 663.156,158.015 661,159.5C 657.631,158.9 654.797,157.4 652.5,155C 655.487,149.847 659.821,146.347 665.5,144.5 Z"/></g>
<g><path style="opacity:1" fill="#f7f7f7" d="M 694.5,147.5 C 698.566,146.178 702.733,146.178 707,147.5C 710.8,157.764 715.134,167.764 720,177.5C 724,167.5 728,157.5 732,147.5C 736.079,146.371 740.245,146.204 744.5,147C 734.096,169.642 724.096,192.476 714.5,215.5C 710.893,216.489 707.226,216.823 703.5,216.5C 706.683,207.964 710.016,199.464 713.5,191C 707.827,176.123 701.493,161.623 694.5,147.5 Z"/></g>
<g><path style="opacity:1" fill="#f53648" d="M 134.5,134.5 C 134.833,134.5 135.167,134.5 135.5,134.5C 143.5,142.833 151.5,151.167 159.5,159.5C 149.165,166.003 138.498,172.003 127.5,177.5C 126.127,177.657 124.793,177.49 123.5,177C 118.297,171.965 113.297,166.798 108.5,161.5C 108.5,161.167 108.5,160.833 108.5,160.5C 112.167,157.5 115.5,154.167 118.5,150.5C 121.5,148.167 124.167,145.5 126.5,142.5C 129.5,140.167 132.167,137.5 134.5,134.5 Z"/></g>
<g><path style="opacity:1" fill="#8a8a8a" d="M 318.5,153.5 C 306.5,153.5 294.5,153.5 282.5,153.5C 282.5,156.833 282.5,160.167 282.5,163.5C 281.518,160.038 281.185,156.371 281.5,152.5C 294.011,152.171 306.345,152.505 318.5,153.5 Z"/></g>
<g><path style="opacity:1" fill="#070707" d="M 344.5,154.5 C 359.958,155.799 365.124,163.799 360,178.5C 353.049,186.804 345.549,187.471 337.5,180.5C 330.864,169.41 333.197,160.743 344.5,154.5 Z"/></g>
<g><path style="opacity:1" fill="#070707" d="M 399.5,154.5 C 410.272,153.875 416.272,158.875 417.5,169.5C 415.533,182.977 408.199,187.477 395.5,183C 385.302,171.884 386.636,162.384 399.5,154.5 Z"/></g>
<g><path style="opacity:1" fill="#040404" d="M 454.5,154.5 C 469.081,155.637 474.248,163.303 470,177.5C 465.251,185.628 458.751,187.461 450.5,183C 444.833,177.681 442.999,171.181 445,163.5C 447.406,159.592 450.572,156.592 454.5,154.5 Z"/></g>
<g><path style="opacity:1" fill="#0b0b0b" d="M 526.5,154.5 C 531.557,153.847 535.557,155.513 538.5,159.5C 531.846,163.327 524.846,166.327 517.5,168.5C 517.982,162.201 520.982,157.534 526.5,154.5 Z"/></g>
<g><path style="opacity:1" fill="#ed324c" d="M 108.5,161.5 C 113.297,166.798 118.297,171.965 123.5,177C 124.793,177.49 126.127,177.657 127.5,177.5C 126.341,179.25 124.674,180.25 122.5,180.5C 117.391,182.554 112.391,184.887 107.5,187.5C 102.77,183.773 98.7703,179.44 95.5,174.5C 96.1667,173.5 96.8333,172.5 97.5,171.5C 101.167,168.167 104.833,164.833 108.5,161.5 Z"/></g>
<g><path style="opacity:1" fill="#090909" d="M 667.5,171.5 C 671.514,171.334 675.514,171.501 679.5,172C 681.002,172.583 682.335,173.416 683.5,174.5C 678.755,185.251 671.589,187.584 662,181.5C 660.984,176.528 662.817,173.194 667.5,171.5 Z"/></g>
<g><path style="opacity:1" fill="#e42e52" d="M 95.5,174.5 C 98.7703,179.44 102.77,183.773 107.5,187.5C 95.5572,195.145 83.2239,202.312 70.5,209C 67.462,209.885 64.7954,209.385 62.5,207.5C 73.1667,196.167 84.1667,185.167 95.5,174.5 Z"/></g>
<g><path style="opacity:1" fill="#be2340" d="M 122.5,180.5 C 106.728,190.226 90.7284,199.726 74.5,209C 70.5935,210.434 66.5935,210.767 62.5,210C 61.7476,209.329 61.4142,208.496 61.5,207.5C 61.8333,207.5 62.1667,207.5 62.5,207.5C 64.7954,209.385 67.462,209.885 70.5,209C 83.2239,202.312 95.5572,195.145 107.5,187.5C 112.391,184.887 117.391,182.554 122.5,180.5 Z"/></g>
</svg>
